<mxfile host="app.diagrams.net" modified="2021-01-25T05:29:27.650Z" agent="5.0 (Windows NT 10.0; Win64; x64) AppleWebKit/537.36 (KHTML, like Gecko) Chrome/87.0.4280.141 Safari/537.36" etag="I4c6KmSKAllTlXfNQRf4" version="14.2.7" type="github">
  <diagram id="C5RBs43oDa-KdzZeNtuy" name="Page-1">
    <mxGraphModel dx="1151" dy="766" grid="1" gridSize="10" guides="1" tooltips="1" connect="1" arrows="1" fold="1" page="1" pageScale="1" pageWidth="827" pageHeight="1169" math="0" shadow="0">
      <root>
        <mxCell id="WIyWlLk6GJQsqaUBKTNV-0" />
        <mxCell id="WIyWlLk6GJQsqaUBKTNV-1" parent="WIyWlLk6GJQsqaUBKTNV-0" />
        <mxCell id="P-4R1GUYayZdRYinxxdE-1" value="FolderMountStatusService" style="swimlane;fontStyle=1;align=center;verticalAlign=top;childLayout=stackLayout;horizontal=1;startSize=26;horizontalStack=0;resizeParent=1;resizeParentMax=0;resizeLast=0;collapsible=1;marginBottom=0;" vertex="1" parent="WIyWlLk6GJQsqaUBKTNV-1">
          <mxGeometry x="26" y="470" width="310" height="242" as="geometry" />
        </mxCell>
        <mxCell id="P-4R1GUYayZdRYinxxdE-2" value="- _logger : ILogger&lt;FolderMountStatusChenckService&gt; " style="text;strokeColor=none;fillColor=none;align=left;verticalAlign=top;spacingLeft=4;spacingRight=4;overflow=hidden;rotatable=0;points=[[0,0.5],[1,0.5]];portConstraint=eastwest;" vertex="1" parent="P-4R1GUYayZdRYinxxdE-1">
          <mxGeometry y="26" width="310" height="26" as="geometry" />
        </mxCell>
        <mxCell id="P-4R1GUYayZdRYinxxdE-6" value="- _reportService : IFileTransferStatusReportService" style="text;strokeColor=none;fillColor=none;align=left;verticalAlign=top;spacingLeft=4;spacingRight=4;overflow=hidden;rotatable=0;points=[[0,0.5],[1,0.5]];portConstraint=eastwest;" vertex="1" parent="P-4R1GUYayZdRYinxxdE-1">
          <mxGeometry y="52" width="310" height="26" as="geometry" />
        </mxCell>
        <mxCell id="P-4R1GUYayZdRYinxxdE-7" value="- _mountFolderPath : string" style="text;strokeColor=none;fillColor=none;align=left;verticalAlign=top;spacingLeft=4;spacingRight=4;overflow=hidden;rotatable=0;points=[[0,0.5],[1,0.5]];portConstraint=eastwest;" vertex="1" parent="P-4R1GUYayZdRYinxxdE-1">
          <mxGeometry y="78" width="310" height="26" as="geometry" />
        </mxCell>
        <mxCell id="P-4R1GUYayZdRYinxxdE-9" value="+ FlagFileName : string" style="text;strokeColor=none;fillColor=none;align=left;verticalAlign=top;spacingLeft=4;spacingRight=4;overflow=hidden;rotatable=0;points=[[0,0.5],[1,0.5]];portConstraint=eastwest;" vertex="1" parent="P-4R1GUYayZdRYinxxdE-1">
          <mxGeometry y="104" width="310" height="26" as="geometry" />
        </mxCell>
        <mxCell id="P-4R1GUYayZdRYinxxdE-3" value="" style="line;strokeWidth=1;fillColor=none;align=left;verticalAlign=middle;spacingTop=-1;spacingLeft=3;spacingRight=3;rotatable=0;labelPosition=right;points=[];portConstraint=eastwest;" vertex="1" parent="P-4R1GUYayZdRYinxxdE-1">
          <mxGeometry y="130" width="310" height="8" as="geometry" />
        </mxCell>
        <mxCell id="P-4R1GUYayZdRYinxxdE-4" value="+ FolderMountStatusService (&#xa;ILogger&lt;FolderMountStatusChenckService&gt; _logger, &#xa;IFileTransferStatusReportService _reportService)&#xa;" style="text;strokeColor=none;fillColor=none;align=left;verticalAlign=top;spacingLeft=4;spacingRight=4;overflow=hidden;rotatable=0;points=[[0,0.5],[1,0.5]];portConstraint=eastwest;" vertex="1" parent="P-4R1GUYayZdRYinxxdE-1">
          <mxGeometry y="138" width="310" height="52" as="geometry" />
        </mxCell>
        <mxCell id="P-4R1GUYayZdRYinxxdE-8" value="# ExecuteAsync (CancellationToken): Task" style="text;strokeColor=none;fillColor=none;align=left;verticalAlign=top;spacingLeft=4;spacingRight=4;overflow=hidden;rotatable=0;points=[[0,0.5],[1,0.5]];portConstraint=eastwest;" vertex="1" parent="P-4R1GUYayZdRYinxxdE-1">
          <mxGeometry y="190" width="310" height="26" as="geometry" />
        </mxCell>
        <mxCell id="P-4R1GUYayZdRYinxxdE-10" value="- GetCurrentFolderMountStatus : string" style="text;strokeColor=none;fillColor=none;align=left;verticalAlign=top;spacingLeft=4;spacingRight=4;overflow=hidden;rotatable=0;points=[[0,0.5],[1,0.5]];portConstraint=eastwest;" vertex="1" parent="P-4R1GUYayZdRYinxxdE-1">
          <mxGeometry y="216" width="310" height="26" as="geometry" />
        </mxCell>
        <mxCell id="P-4R1GUYayZdRYinxxdE-15" value="BackgroundService" style="swimlane;fontStyle=3;align=center;verticalAlign=top;childLayout=stackLayout;horizontal=1;startSize=26;horizontalStack=0;resizeParent=1;resizeParentMax=0;resizeLast=0;collapsible=1;marginBottom=0;" vertex="1" parent="WIyWlLk6GJQsqaUBKTNV-1">
          <mxGeometry x="107" y="240" width="160" height="152" as="geometry" />
        </mxCell>
        <mxCell id="P-4R1GUYayZdRYinxxdE-17" value="" style="line;strokeWidth=1;fillColor=none;align=left;verticalAlign=middle;spacingTop=-1;spacingLeft=3;spacingRight=3;rotatable=0;labelPosition=right;points=[];portConstraint=eastwest;" vertex="1" parent="P-4R1GUYayZdRYinxxdE-15">
          <mxGeometry y="26" width="160" height="8" as="geometry" />
        </mxCell>
        <mxCell id="P-4R1GUYayZdRYinxxdE-19" value="+ StartAsync : Task " style="text;strokeColor=none;fillColor=none;align=left;verticalAlign=top;spacingLeft=4;spacingRight=4;overflow=hidden;rotatable=0;points=[[0,0.5],[1,0.5]];portConstraint=eastwest;" vertex="1" parent="P-4R1GUYayZdRYinxxdE-15">
          <mxGeometry y="34" width="160" height="26" as="geometry" />
        </mxCell>
        <mxCell id="P-4R1GUYayZdRYinxxdE-18" value="# ExecuteAsync (&#xa;CancellationToken): Task " style="text;strokeColor=none;fillColor=none;align=left;verticalAlign=top;spacingLeft=4;spacingRight=4;overflow=hidden;rotatable=0;points=[[0,0.5],[1,0.5]];portConstraint=eastwest;" vertex="1" parent="P-4R1GUYayZdRYinxxdE-15">
          <mxGeometry y="60" width="160" height="40" as="geometry" />
        </mxCell>
        <mxCell id="P-4R1GUYayZdRYinxxdE-20" value="+ StopAsync : Task " style="text;strokeColor=none;fillColor=none;align=left;verticalAlign=top;spacingLeft=4;spacingRight=4;overflow=hidden;rotatable=0;points=[[0,0.5],[1,0.5]];portConstraint=eastwest;" vertex="1" parent="P-4R1GUYayZdRYinxxdE-15">
          <mxGeometry y="100" width="160" height="26" as="geometry" />
        </mxCell>
        <mxCell id="P-4R1GUYayZdRYinxxdE-26" value="+ Dispose : void " style="text;strokeColor=none;fillColor=none;align=left;verticalAlign=top;spacingLeft=4;spacingRight=4;overflow=hidden;rotatable=0;points=[[0,0.5],[1,0.5]];portConstraint=eastwest;" vertex="1" parent="P-4R1GUYayZdRYinxxdE-15">
          <mxGeometry y="126" width="160" height="26" as="geometry" />
        </mxCell>
        <mxCell id="P-4R1GUYayZdRYinxxdE-22" style="edgeStyle=orthogonalEdgeStyle;rounded=0;orthogonalLoop=1;jettySize=auto;html=1;" edge="1" parent="WIyWlLk6GJQsqaUBKTNV-1" source="P-4R1GUYayZdRYinxxdE-21" target="P-4R1GUYayZdRYinxxdE-15">
          <mxGeometry relative="1" as="geometry">
            <Array as="points">
              <mxPoint x="273" y="160" />
              <mxPoint x="183" y="160" />
            </Array>
          </mxGeometry>
        </mxCell>
        <mxCell id="P-4R1GUYayZdRYinxxdE-21" value="IHostedService" style="shape=providedRequiredInterface;html=1;verticalLabelPosition=bottom;" vertex="1" parent="WIyWlLk6GJQsqaUBKTNV-1">
          <mxGeometry x="260" y="150" width="20" height="20" as="geometry" />
        </mxCell>
        <mxCell id="P-4R1GUYayZdRYinxxdE-24" style="edgeStyle=orthogonalEdgeStyle;rounded=0;orthogonalLoop=1;jettySize=auto;html=1;" edge="1" parent="WIyWlLk6GJQsqaUBKTNV-1" source="P-4R1GUYayZdRYinxxdE-23" target="P-4R1GUYayZdRYinxxdE-15">
          <mxGeometry relative="1" as="geometry">
            <Array as="points">
              <mxPoint x="97" y="160" />
              <mxPoint x="181" y="160" />
            </Array>
          </mxGeometry>
        </mxCell>
        <mxCell id="P-4R1GUYayZdRYinxxdE-23" value="IDisposable" style="shape=providedRequiredInterface;html=1;verticalLabelPosition=bottom;" vertex="1" parent="WIyWlLk6GJQsqaUBKTNV-1">
          <mxGeometry x="87" y="150" width="20" height="20" as="geometry" />
        </mxCell>
        <mxCell id="P-4R1GUYayZdRYinxxdE-29" value="FileTransferStatusReportServiceExtension" style="swimlane;fontStyle=1;align=center;verticalAlign=top;childLayout=stackLayout;horizontal=1;startSize=26;horizontalStack=0;resizeParent=1;resizeParentMax=0;resizeLast=0;collapsible=1;marginBottom=0;" vertex="1" parent="WIyWlLk6GJQsqaUBKTNV-1">
          <mxGeometry x="450" y="658" width="320" height="60" as="geometry" />
        </mxCell>
        <mxCell id="P-4R1GUYayZdRYinxxdE-31" value="" style="line;strokeWidth=1;fillColor=none;align=left;verticalAlign=middle;spacingTop=-1;spacingLeft=3;spacingRight=3;rotatable=0;labelPosition=right;points=[];portConstraint=eastwest;" vertex="1" parent="P-4R1GUYayZdRYinxxdE-29">
          <mxGeometry y="26" width="320" height="8" as="geometry" />
        </mxCell>
        <mxCell id="P-4R1GUYayZdRYinxxdE-32" value="+ ReportFolderShareStatus: IFileTransferReportService" style="text;strokeColor=none;fillColor=none;align=left;verticalAlign=top;spacingLeft=4;spacingRight=4;overflow=hidden;rotatable=0;points=[[0,0.5],[1,0.5]];portConstraint=eastwest;" vertex="1" parent="P-4R1GUYayZdRYinxxdE-29">
          <mxGeometry y="34" width="320" height="26" as="geometry" />
        </mxCell>
        <mxCell id="P-4R1GUYayZdRYinxxdE-36" value="FileTransferStatus" style="swimlane;fontStyle=1;align=center;verticalAlign=top;childLayout=stackLayout;horizontal=1;startSize=26;horizontalStack=0;resizeParent=1;resizeParentMax=0;resizeLast=0;collapsible=1;marginBottom=0;" vertex="1" parent="WIyWlLk6GJQsqaUBKTNV-1">
          <mxGeometry x="530" y="800" width="160" height="60" as="geometry" />
        </mxCell>
        <mxCell id="P-4R1GUYayZdRYinxxdE-37" value="+ FolderShareStates: string" style="text;strokeColor=none;fillColor=none;align=left;verticalAlign=top;spacingLeft=4;spacingRight=4;overflow=hidden;rotatable=0;points=[[0,0.5],[1,0.5]];portConstraint=eastwest;" vertex="1" parent="P-4R1GUYayZdRYinxxdE-36">
          <mxGeometry y="26" width="160" height="26" as="geometry" />
        </mxCell>
        <mxCell id="P-4R1GUYayZdRYinxxdE-38" value="" style="line;strokeWidth=1;fillColor=none;align=left;verticalAlign=middle;spacingTop=-1;spacingLeft=3;spacingRight=3;rotatable=0;labelPosition=right;points=[];portConstraint=eastwest;" vertex="1" parent="P-4R1GUYayZdRYinxxdE-36">
          <mxGeometry y="52" width="160" height="8" as="geometry" />
        </mxCell>
        <mxCell id="P-4R1GUYayZdRYinxxdE-44" value="FolderShareStatusEnum" style="swimlane;fontStyle=1;align=center;verticalAlign=top;childLayout=stackLayout;horizontal=1;startSize=26;horizontalStack=0;resizeParent=1;resizeParentMax=0;resizeLast=0;collapsible=1;marginBottom=0;" vertex="1" parent="WIyWlLk6GJQsqaUBKTNV-1">
          <mxGeometry x="100" y="790" width="160" height="112" as="geometry" />
        </mxCell>
        <mxCell id="P-4R1GUYayZdRYinxxdE-45" value="+ Ok: string" style="text;strokeColor=none;fillColor=none;align=left;verticalAlign=top;spacingLeft=4;spacingRight=4;overflow=hidden;rotatable=0;points=[[0,0.5],[1,0.5]];portConstraint=eastwest;" vertex="1" parent="P-4R1GUYayZdRYinxxdE-44">
          <mxGeometry y="26" width="160" height="26" as="geometry" />
        </mxCell>
        <mxCell id="P-4R1GUYayZdRYinxxdE-48" value="+ NotMounted: string" style="text;strokeColor=none;fillColor=none;align=left;verticalAlign=top;spacingLeft=4;spacingRight=4;overflow=hidden;rotatable=0;points=[[0,0.5],[1,0.5]];portConstraint=eastwest;" vertex="1" parent="P-4R1GUYayZdRYinxxdE-44">
          <mxGeometry y="52" width="160" height="26" as="geometry" />
        </mxCell>
        <mxCell id="P-4R1GUYayZdRYinxxdE-49" value="+ AccessFailure: string" style="text;strokeColor=none;fillColor=none;align=left;verticalAlign=top;spacingLeft=4;spacingRight=4;overflow=hidden;rotatable=0;points=[[0,0.5],[1,0.5]];portConstraint=eastwest;" vertex="1" parent="P-4R1GUYayZdRYinxxdE-44">
          <mxGeometry y="78" width="160" height="26" as="geometry" />
        </mxCell>
        <mxCell id="P-4R1GUYayZdRYinxxdE-46" value="" style="line;strokeWidth=1;fillColor=none;align=left;verticalAlign=middle;spacingTop=-1;spacingLeft=3;spacingRight=3;rotatable=0;labelPosition=right;points=[];portConstraint=eastwest;" vertex="1" parent="P-4R1GUYayZdRYinxxdE-44">
          <mxGeometry y="104" width="160" height="8" as="geometry" />
        </mxCell>
        <mxCell id="P-4R1GUYayZdRYinxxdE-55" value="" style="endArrow=block;endSize=16;endFill=0;html=1;entryX=0.456;entryY=1.308;entryDx=0;entryDy=0;entryPerimeter=0;" edge="1" parent="WIyWlLk6GJQsqaUBKTNV-1" source="P-4R1GUYayZdRYinxxdE-1" target="P-4R1GUYayZdRYinxxdE-26">
          <mxGeometry width="160" relative="1" as="geometry">
            <mxPoint x="340" y="380" as="sourcePoint" />
            <mxPoint x="500" y="380" as="targetPoint" />
          </mxGeometry>
        </mxCell>
        <mxCell id="P-4R1GUYayZdRYinxxdE-63" value="Use" style="endArrow=open;endSize=12;dashed=1;html=1;entryX=0.5;entryY=0;entryDx=0;entryDy=0;" edge="1" parent="WIyWlLk6GJQsqaUBKTNV-1" source="P-4R1GUYayZdRYinxxdE-10" target="P-4R1GUYayZdRYinxxdE-44">
          <mxGeometry width="160" relative="1" as="geometry">
            <mxPoint x="10" y="730" as="sourcePoint" />
            <mxPoint x="170" y="730" as="targetPoint" />
          </mxGeometry>
        </mxCell>
        <mxCell id="P-4R1GUYayZdRYinxxdE-64" value="Use" style="endArrow=open;endSize=12;dashed=1;html=1;exitX=0.5;exitY=1;exitDx=0;exitDy=0;entryX=0.5;entryY=0;entryDx=0;entryDy=0;" edge="1" parent="WIyWlLk6GJQsqaUBKTNV-1" source="P-4R1GUYayZdRYinxxdE-29" target="P-4R1GUYayZdRYinxxdE-36">
          <mxGeometry width="160" relative="1" as="geometry">
            <mxPoint x="140" y="878" as="sourcePoint" />
            <mxPoint x="300" y="878" as="targetPoint" />
          </mxGeometry>
        </mxCell>
        <mxCell id="P-4R1GUYayZdRYinxxdE-65" value="Use" style="endArrow=open;endSize=12;dashed=1;html=1;entryX=0;entryY=0.25;entryDx=0;entryDy=0;exitX=1;exitY=0.5;exitDx=0;exitDy=0;" edge="1" parent="WIyWlLk6GJQsqaUBKTNV-1" source="P-4R1GUYayZdRYinxxdE-8" target="P-4R1GUYayZdRYinxxdE-29">
          <mxGeometry width="160" relative="1" as="geometry">
            <mxPoint x="320" y="670" as="sourcePoint" />
            <mxPoint x="480" y="670" as="targetPoint" />
          </mxGeometry>
        </mxCell>
      </root>
    </mxGraphModel>
  </diagram>
</mxfile>
